<svg xmlns="http://www.w3.org/2000/svg" viewBox="0 0 48 30" enable-background="new 0 0 48 30"><path fill="#003574" d="M46.181 30h-44.362c-1.005 0-1.819-.814-1.819-1.819v-26.362c0-1.005.814-1.819 1.819-1.819h44.363c1.004 0 1.818.814 1.818 1.819v26.362c0 1.005-.814 1.819-1.819 1.819z"/><path fill="#ED8313" d="M23.984 22.026c-.005 0 .506-.442.848-.875h-1.72s-.588-.636-.806-1.116h3.363s.325-.512.543-.945h-4.448s-.407-.761-.495-1.163h5.408s.186-.527.263-.915l-5.92.007c-.163-.744-.557-2.905.256-5.293l5.378-.007c-.086-.286-.233-.674-.372-.96h-4.619c.187-.388.458-.876.613-1.122l3.386-.002c-.178-.271-.465-.698-.651-.892l-2.085.001c.391-.54 1.054-1.1 1.054-1.1h.016l-.022-.007c1.713-1.543 3.981-2.481 6.468-2.481 5.342 0 9.671 4.33 9.671 9.671 0 5.342-4.33 9.671-9.671 9.671-2.482.001-4.746-.934-6.458-2.472z"/><path fill="#E10020" d="M27.177 14.828c0 5.341-4.33 9.671-9.671 9.671-5.342 0-9.67-4.33-9.67-9.671 0-5.341 4.329-9.671 9.67-9.671s9.671 4.33 9.671 9.671z"/><path fill="#fff" d="M19.381 13.662l-.156.728-.849-.018s-.424.093-.424.242.312.336.781.504c.469.168.491.634.446.952-.044.317-.111.976-1.473 1.008-.781.019-1.205-.112-1.205-.112l.179-.746s1.004.224 1.228.093c.223-.131.491-.355.067-.504-.424-.15-1.116-.393-1.116-.99 0-.596.29-.933.737-1.101.445-.168 1.227-.15 1.785-.056zM12.676 16.992h-.987l.574-2.837-1.219 2.819h-.681l-.164-2.932-.597 2.95h-.933l.88-4.329h1.131l.397 2.492 1.316-2.492h1.162l-.879 4.329zM20.262 17.052c-.321 0-.55-.06-.688-.174-.138-.121-.207-.303-.207-.537l.016-.173.031-.208.593-2.77h.925l-.135.541h.864l-.145.685h-.864l-.237 1.181-.046.242-.023.209c0 .121.023.199.084.243.054.042.146.069.268.069l.183-.027.191-.069h.077l-.145.694-.328.068c-.116.017-.253.026-.414.026zM26.899 14.642c-.202-.131-.652-.105-.745.163l-.444 2.186h-.924l.665-3.262h.924l-.019.264c.176-.148.371-.273.867-.26.032.002-.3.486-.324.909zM28.647 17.079c-.513 0-.918-.147-1.192-.434-.284-.285-.421-.702-.421-1.24 0-.426.062-.808.184-1.155s.298-.641.511-.893c.215-.243.468-.434.766-.572.288-.14.603-.209.931-.209.26 0 .505.035.735.096l.324.117-.215 1.028c-.107-.114-.214-.204-.324-.269-.161-.087-.352-.139-.566-.139-.382 0-.696.174-.94.521-.252.347-.375.79-.375 1.328 0 .347.069.599.207.754.138.147.336.226.597.226.236 0 .458-.053.665-.157l.287-.175-.215.982-.165.06-.343.095c-.107.017-.26.036-.451.036zM14.953 16.878l-.107.062-.267.104c-.084.017-.199.035-.352.035-.237 0-.436-.078-.581-.226-.153-.157-.23-.357-.23-.598 0-.26.053-.477.161-.659.107-.175.267-.322.482-.425.199-.104.436-.173.704-.217l.191-.026c.222-.035.451-.06.704-.07l.007-.06.008-.087c0-.138-.054-.234-.168-.295-.115-.051-.283-.077-.505-.077h-.046c-.138.008-.29.034-.458.086l-.413.148h-.084l.138-.772c.107-.035.275-.07.497-.104l.321-.044.352-.018c.451 0 .78.069.994.2.214.131.314.339.314.625l-.008.148-.023.165-.45 2.22h-.918l.069-.348-.207.157-.125.076zm0-1.352l-.252.069c-.107.042-.184.103-.237.182-.061.078-.084.182-.084.312 0 .113.038.19.107.234.077.043.176.069.321.069l.145-.026.146-.043.29-.182.138-.695-.458.062-.116.018zM22.949 14.293c-.122.018-.237.07-.328.156-.13.122-.23.278-.298.486h1.2469999999999999l.008-.096.007-.086c0-.158-.046-.27-.13-.358-.084-.077-.198-.12-.359-.12l-.147.018zm0 2.048h.138c.199 0 .39-.034.574-.113.176-.078.336-.164.466-.26h.107l-.176.84c-.176.089-.367.157-.565.2-.168.043-.352.061-.543.069h-.084c-.497 0-.872-.121-1.14-.373-.267-.243-.398-.581-.398-1.015 0-.296.046-.572.131-.816.084-.251.214-.468.374-.66.161-.182.352-.32.589-.433.168-.069.345-.121.528-.148l.252-.008c.429 0 .75.095.971.294.214.191.322.486.322.868 0 .13-.008.26-.031.391l-.092.373h-2.142v.069c0 .226.077.4.214.529.116.107.283.176.505.193zM31.614 16.878l-.114.062-.267.104c-.084.017-.2.035-.345.035-.245 0-.436-.078-.589-.226-.153-.157-.223-.357-.223-.598 0-.26.053-.477.162-.659.106-.175.267-.322.474-.425.198-.104.435-.173.71-.217l.191-.026c.215-.035.452-.06.697-.07l.014-.06.008-.087c0-.138-.06-.234-.169-.295-.114-.051-.282-.077-.504-.077h-.047c-.145.008-.297.034-.458.086l-.413.148h-.084l.13-.772c.107-.035.274-.07.504-.104l.32-.044.352-.018c.452 0 .779.069.995.2.206.131.313.339.313.625l-.007.148-.025.165-.45 2.22h-.918l.071-.348-.214.157-.114.076zm0-1.352l-.259.069c-.099.042-.184.103-.236.182-.055.078-.086.182-.086.312 0 .113.039.19.115.234.068.043.176.069.314.069l.152-.026.138-.043c.107-.052.199-.113.291-.182l.145-.695-.467.062-.107.018zM35.516 14.642c-.202-.131-.652-.105-.745.163l-.443 2.186h-.925l.665-3.262h.924l-.019.264c.175-.148.371-.273.868-.26.031.002-.301.486-.325.909z"/><path fill-rule="evenodd" clip-rule="evenodd" fill="#fff" d="M37.333 14.424l-.13.069c-.123.069-.222.174-.306.295-.069.12-.13.26-.168.442-.047.173-.069.348-.069.512 0 .2.046.338.121.425.086.095.207.139.368.139l.184-.035.084-.034.26-.148.328-1.605-.198-.07-.208-.034-.266.044zm0 2.394l-.23.147-.221.087-.268.026c-.284 0-.505-.105-.674-.304-.16-.208-.245-.503-.245-.876 0-.312.038-.607.13-.876.084-.268.206-.512.36-.72.153-.209.328-.365.534-.486.2-.113.398-.173.613-.182h.031c.16 0 .298.018.413.052.114.035.237.096.359.174l.206-1.138h.925l-.848 4.269h-.925l.068-.338-.228.165z"/></svg>