<svg xmlns="http://www.w3.org/2000/svg" viewBox="0 0 48 30" enable-background="new 0 0 48 30"><path fill="#fff" d="M46.181 30h-44.362c-1.005 0-1.819-.814-1.819-1.819v-26.362c0-1.005.814-1.819 1.819-1.819h44.363c1.004 0 1.818.814 1.818 1.819v26.362c0 1.005-.814 1.819-1.819 1.819z"/><path fill="#E1E8ED" d="M46.181 1c.452 0 .819.367.819.819v26.362c0 .452-.367.819-.819.819h-44.362c-.452 0-.819-.367-.819-.819v-26.362c0-.452.367-.819.819-.819h44.362m0-1h-44.362c-1.005 0-1.819.814-1.819 1.819v26.362c0 1.005.814 1.819 1.819 1.819h44.362c1.005 0 1.819-.814 1.819-1.819v-26.362c0-1.005-.814-1.819-1.819-1.819z"/><path fill="#F3A23B" d="M9.81 9.197h-4.474v.222c2.575.512 5.812 2.756 6.677 5.562l-.96-4.761c-.13-.734-.632-1.023-1.243-1.023z"/><path fill="#3957A7" d="M37.483 19.748c-.166-.492-.212-1.104-.383-1.592h-3.497l-.656 1.592h-2.951l3.825-8.839c.169-.388.473-.918.601-1.153.195-.358.947-.385 1.266-.385h2.122l2.241 10.376-2.568.001zm-1.687-7.517l-1.428 3.838h2.308l-.88-3.838zm-8.095-.883c-.646.043-1.41.293-1.421.878-.011.649 1.049 1.034 1.64 1.318 1.064.512 2.206 1.193 2.295 2.58.068 1.066-.424 1.994-.983 2.525-1.49 1.415-4.794 1.564-7.05.659.141-.756.268-1.524.383-2.306.873.373 2.072.877 3.388.714.599-.075 1.332-.425 1.312-1.043-.026-.754-1.426-1.202-2.132-1.592-.82-.453-1.752-1.208-1.803-2.361-.034-.767.263-1.486.656-1.976 1.164-1.454 4.157-1.971 6.612-1.153-.097.782-.224 1.532-.383 2.251-.664-.218-1.431-.567-2.514-.494zm-10.127 8.367l1.714-10.322h2.805l-1.714 10.322h-2.805zm-6.771-.022l-2.503-8.987c.869.51 1.693 1.211 2.372 1.957l.174.19.258.312.037.048c.47.617.838 1.288 1.054 2.001l-.049-.241.005.016.292 1.354c.996-2.257 1.82-4.686 2.787-6.972h2.951c-1.43 3.468-2.957 6.838-4.372 10.321h-3.006z"/></svg>